<?xml version="1.0" standalone="no"?>
<!DOCTYPE svg PUBLIC "-//W3C//DTD SVG 20010904//EN"
 "http://www.w3.org/TR/2001/REC-SVG-20010904/DTD/svg10.dtd">
<svg version="1.0" xmlns="http://www.w3.org/2000/svg"
 width="287.000000pt" height="286.000000pt" viewBox="0 0 287.000000 286.000000"
 preserveAspectRatio="xMidYMid meet">

<g transform="translate(0.000000,286.000000) scale(0.100000,-0.100000)"
fill="#000000" stroke="none">
<path d="M1566 2829 c-3 -17 -3 -35 0 -40 3 -5 -24 -8 -63 -7 -37 1 -85 -4
-107 -12 -30 -10 -40 -10 -46 0 -6 9 -12 9 -30 0 -41 -22 -154 -97 -194 -129
-21 -17 -42 -28 -47 -25 -5 3 -8 0 -7 -8 2 -7 -3 -11 -12 -9 -8 3 -130 8 -270
12 -140 4 -282 10 -315 13 -33 3 -109 8 -170 12 -60 3 -126 9 -145 14 -19 5
-63 8 -97 8 l-63 -1 0 -68 0 -69 40 0 c21 0 61 -7 87 -16 57 -19 194 -44 282
-50 36 -3 70 -8 75 -13 14 -10 68 -25 81 -22 9 2 67 -13 110 -29 49 -18 93
-30 112 -30 11 0 46 -9 79 -19 43 -15 62 -17 71 -9 20 17 27 3 39 -81 2 -19 7
-38 10 -43 4 -6 14 -42 24 -81 17 -64 19 -68 20 -34 2 20 3 40 5 45 1 4 5 21
9 37 4 17 10 37 13 45 4 8 7 18 7 23 1 4 5 7 10 6 4 0 18 15 31 33 17 25 20
38 13 51 -8 15 -5 20 11 24 12 3 21 9 21 14 0 5 10 14 23 20 12 5 36 20 54 33
85 62 280 55 370 -14 l22 -17 -24 -13 c-32 -17 -31 -23 3 -40 39 -20 62 -41
56 -51 -3 -5 -7 -19 -9 -31 -6 -30 -14 -36 -60 -40 -33 -3 -41 -8 -43 -28 -2
-13 5 -40 17 -60 12 -21 25 -74 32 -128 12 -91 12 -92 -11 -117 -16 -17 -34
-25 -56 -25 -34 0 -67 -26 -43 -34 8 -3 25 -6 39 -8 18 -2 26 -10 28 -28 5
-33 22 -51 22 -22 0 12 6 22 13 22 16 0 37 -20 37 -35 0 -13 -207 -80 -237
-76 -13 1 -27 -7 -37 -21 -31 -44 -13 -65 24 -28 29 29 140 55 187 43 l38 -10
-27 -11 c-14 -6 -29 -16 -33 -21 -3 -6 -15 -11 -26 -11 -16 0 -19 -7 -19 -40
0 -36 3 -40 25 -40 94 0 102 -80 12 -125 -28 -14 -70 -29 -94 -32 -23 -3 -43
-10 -43 -16 0 -5 -13 -7 -32 -3 -18 4 -28 3 -23 -2 76 -67 162 -136 181 -144
37 -17 24 -32 -37 -44 -65 -12 -105 -6 -259 41 -157 49 -170 54 -163 71 12 31
-34 13 -58 -23 -13 -21 -33 -39 -44 -42 -11 -2 -22 -6 -25 -10 -12 -16 -161
-111 -217 -139 -34 -17 -87 -49 -118 -71 -36 -25 -77 -44 -112 -51 -37 -8 -79
-29 -131 -64 -42 -29 -98 -64 -124 -79 -63 -36 -98 -83 -98 -131 0 -50 -13
-73 -72 -126 -45 -41 -49 -50 -54 -100 l-6 -55 21 33 c11 17 27 32 35 32 21 0
2 -52 -30 -82 -19 -18 -24 -33 -24 -72 0 -48 0 -49 20 -31 11 10 20 24 20 32
0 8 5 11 12 7 6 -4 8 -3 5 4 -9 14 3 43 14 36 5 -3 6 2 3 10 -4 10 -1 16 9 16
8 0 17 5 19 12 3 9 8 9 19 -2 20 -18 12 -56 -15 -78 -34 -27 -37 -47 -11 -72
21 -19 31 -22 67 -16 69 12 93 12 93 -1 0 -7 -38 -53 -85 -104 -47 -50 -89
-98 -93 -105 -7 -12 214 -14 1393 -14 l1400 0 0 21 c0 12 -13 38 -29 58 -34
42 -91 152 -91 174 0 22 -76 247 -105 311 -14 30 -25 58 -25 62 0 16 -136 282
-161 314 -15 19 -44 44 -65 55 -21 11 -72 39 -113 62 -42 24 -91 48 -111 54
-19 6 -66 27 -105 46 -38 20 -98 46 -133 59 -84 32 -139 70 -145 99 -9 53 11
161 47 246 20 48 39 108 43 135 3 27 12 57 19 68 7 10 10 26 7 35 -4 14 -3 14
6 1 6 -8 11 -23 11 -33 0 -10 5 -15 10 -12 6 3 10 1 10 -4 0 -6 9 -11 20 -11
16 0 20 -7 20 -30 0 -19 5 -30 14 -30 7 0 19 -15 27 -32 20 -50 43 -62 54 -28
10 30 25 24 25 -10 0 -38 36 -110 54 -110 7 0 19 -7 26 -15 9 -11 17 -12 30
-5 27 14 30 13 30 -15 0 -14 6 -25 13 -26 48 -3 77 -21 77 -49 0 -18 52 -30
150 -35 49 -2 80 -12 80 -26 0 -5 6 -9 14 -9 7 0 25 -9 39 -20 l25 -20 5 21
c4 16 11 20 26 16 13 -3 25 1 32 11 7 12 12 14 15 5 7 -15 44 -17 44 -3 0 6 9
10 20 10 11 0 20 5 20 10 0 6 11 10 24 10 39 0 46 60 21 175 -30 138 -49 284
-39 306 10 23 11 23 29 -9 11 -18 23 -32 27 -32 4 0 8 239 8 530 l0 530 -649
0 -648 0 -7 -31z m87 -69 c-4 -4 -30 -4 -58 -1 l-50 5 40 6 c44 6 81 1 68 -10z
m67 -20 l25 -20 -32 12 c-18 7 -33 16 -33 20 0 13 13 9 40 -12z m190 -897 c0
-19 -3 -24 -10 -17 -6 6 -8 18 -4 27 9 24 14 21 14 -10z m-536 -1283 c16 -6
27 -6 31 0 10 17 54 11 75 -10 34 -34 21 -70 -26 -75 -16 -1 -36 -5 -44 -8
-14 -5 -54 -12 -145 -23 -53 -6 -66 -9 -89 -19 -11 -5 -27 -3 -39 4 -17 11
-22 10 -29 -3 -11 -20 -71 -31 -97 -17 -12 7 -29 23 -38 37 -14 22 -14 27 -2
35 8 5 19 7 26 4 7 -2 15 5 18 16 6 19 41 27 47 9 3 -8 15 -7 103 16 11 2 32
5 47 6 15 0 25 5 22 10 -3 4 3 11 12 15 10 4 19 2 22 -5 5 -17 32 -15 32 3 0
17 36 20 74 5z m923 -86 c-3 -3 -12 -4 -19 -1 -8 3 -5 6 6 6 11 1 17 -2 13 -5z"/>
<path d="M1353 515 c12 -40 31 -48 21 -10 -5 19 -2 25 10 25 15 0 21 -12 16
-35 -1 -5 4 -5 11 2 17 17 -8 46 -33 40 -10 -3 -18 -1 -18 4 0 5 -4 9 -9 9 -5
0 -4 -15 2 -35z"/>
<path d="M1424 526 c3 -12 6 -25 6 -29 0 -5 4 -6 9 -3 5 3 7 15 4 26 -4 14 0
20 10 20 9 0 18 -10 20 -22 5 -20 5 -20 4 2 -2 20 -8 25 -30 26 -24 1 -28 -2
-23 -20z"/>
<path d="M1258 520 c2 -8 7 -25 9 -37 3 -13 9 -21 13 -18 5 3 6 14 3 25 -4 14
0 20 11 20 15 0 21 -12 16 -35 -1 -6 3 -6 10 1 18 18 0 44 -30 44 -16 0 -30 3
-33 8 -2 4 -2 0 1 -8z"/>
<path d="M1330 520 c0 -8 5 -22 10 -30 9 -13 10 -13 10 0 0 8 -5 22 -10 30 -9
13 -10 13 -10 0z"/>
<path d="M1194 494 c3 -9 6 -22 6 -30 0 -8 6 -11 16 -7 12 4 13 8 3 13 -6 5
-9 15 -6 24 4 10 1 16 -9 16 -11 0 -14 -6 -10 -16z"/>
<path d="M1240 495 c6 -8 8 -20 4 -27 -5 -10 -4 -10 6 -1 14 13 7 43 -11 43
-8 0 -8 -4 1 -15z"/>
<path d="M1040 481 c0 -16 -6 -21 -27 -21 -14 0 -24 -3 -20 -6 3 -4 22 -3 42
0 26 5 35 12 33 23 -5 25 -28 28 -28 4z"/>
<path d="M1158 480 c-20 -19 -24 -40 -7 -40 5 0 7 5 4 11 -4 6 1 16 11 24 11
7 17 15 14 18 -3 2 -13 -3 -22 -13z"/>
<path d="M1090 480 c-20 -12 -5 -24 16 -12 9 5 12 12 7 15 -5 3 -15 2 -23 -3z"/>
<path d="M1287 2187 c-41 -8 -65 -20 -78 -36 -25 -31 -18 -37 18 -16 23 13 34
14 58 5 23 -9 26 -13 15 -20 -12 -8 -9 -10 10 -10 19 -1 13 -6 -25 -20 -61
-24 -61 -24 -44 -2 11 14 10 13 -9 -2 -30 -26 -30 -50 1 -40 38 12 52 10 61
-13 7 -15 22 -23 51 -28 53 -7 68 -1 101 42 31 40 45 125 24 138 -21 13 -123
14 -183 2z"/>
<path d="M981 1923 c1 -37 1 -38 11 -10 5 15 14 27 19 27 6 0 7 5 4 10 -3 6
-13 10 -21 10 -10 0 -14 -11 -13 -37z"/>
<path d="M1037 1883 c-4 -3 -7 -13 -7 -21 0 -12 3 -12 15 -2 8 7 15 16 15 21
0 11 -14 12 -23 2z"/>
</g>
</svg>
